<?xml version="1.0" encoding="UTF-8"?>
<svg width="223px" height="59px" viewBox="0 0 223 59" version="1.1" xmlns="http://www.w3.org/2000/svg" xmlns:xlink="http://www.w3.org/1999/xlink">
    <!-- Generator: Sketch 54.1 (76490) - https://sketchapp.com -->
    <title>logo / standard </title>
    <desc>Created with Sketch.</desc>
    <defs>
        <path d="M9.79624884,0.203305245 C9.79624884,0.203305245 9.03873624,0.660055206 8.93590648,0.795019668 C8.18867686,1.73702353 1.81665916,2.45443005 0.918612557,0.773727564 C0.836348746,0.613693368 0,0.0683407835 0,0.0683407835 L0,4.18664569 C0,4.18664569 0.747229617,3.7147852 0.808927476,3.60248653 C1.62128261,2.07494982 8.10984071,2.43657216 8.75766822,3.33839576 C8.82964906,3.43970496 9.83052542,4.18664569 9.83052542,4.18664569 L9.79624884,0.203305245" id="path-1"></path>
        <linearGradient x1="0%" y1="49.9991661%" x2="99.9853556%" y2="49.9991661%" id="linearGradient-3">
            <stop stop-color="#246E97" offset="0%"></stop>
            <stop stop-color="#33A57F" offset="100%"></stop>
        </linearGradient>
        <path d="M8.94961711,1.13775385 C8.14068964,1.90014852 2.29310373,1.79712221 1.51502519,1.06391833 C0.832921087,0.418973648 0.017138294,0.400085491 0.017138294,0.400085491 L0.0411319055,3.98986544 C0.0411319055,3.98986544 1.00087637,3.92839308 1.6384209,3.15397867 C2.1045825,2.58836425 7.08497073,1.92453141 9.02502561,3.20308788 C9.12785537,3.27245893 10.0293296,3.96548255 10.0293296,3.96548255 L10.0807445,0.301867079 C10.0807445,0.301867079 9.07301283,1.02236438 8.94961711,1.13775385" id="path-4"></path>
        <linearGradient x1="0%" y1="49.9944129%" x2="99.974455%" y2="49.9944129%" id="linearGradient-6">
            <stop stop-color="#33A57F" offset="0%"></stop>
            <stop stop-color="#DF7C42" offset="100%"></stop>
        </linearGradient>
        <path d="M9.09700644,0.965356495 C8.10641305,2.33320243 1.82351448,2.09212087 1.09685081,0.769263091 C1.014587,0.619874946 0.0411319055,0.15453946 0.0411319055,0.15453946 L0.215942504,4.13753648 C0.215942504,4.13753648 1.00087637,3.75187467 1.0728572,3.64575758 C2.06687825,2.19033928 8.15097261,2.11822087 9.31980426,3.59630495 C9.39521276,3.69624047 9.73455098,3.7930852 9.73455098,3.7930852 L9.90593392,0.350976285 C9.90593392,0.350976285 9.19298089,0.827301244 9.09700644,0.965356495" id="path-7"></path>
        <linearGradient x1="0.000347463516%" y1="49.9991378%" x2="100.00139%" y2="49.9991378%" id="linearGradient-9">
            <stop stop-color="#DF7C42" offset="0%"></stop>
            <stop stop-color="#D14F5D" offset="100%"></stop>
        </linearGradient>
        <path d="M30.9243377,0.798110457 C29.8137762,2.54474978 1.4807486,2.39433137 0.884335969,0.79914072 C0.82606577,0.644257839 0,0.333461813 0,0.333461813 L0,4.45348382 C0,4.45348382 1.0317253,4.06473122 1.0899955,3.95724044 C1.88521234,2.49426689 30.1565421,2.3098498 30.7838036,3.95552334 C30.8283632,4.0709128 31.6818502,4.42120225 31.6818502,4.42120225 L31.5515992,0.465678907 C31.5515992,0.465678907 31.0134568,0.656620995 30.9243377,0.798110457" id="path-10"></path>
        <linearGradient x1="0%" y1="50.0041677%" x2="100.003895%" y2="50.0041677%" id="linearGradient-12">
            <stop stop-color="#567181" offset="0%"></stop>
            <stop stop-color="#D8A93B" offset="100%"></stop>
        </linearGradient>
        <path d="M31.0100291,0.684094677 C30.0537123,2.08559587 2.48848029,3.01970105 0.867197675,0.831422296 C0.592984972,0.464305223 0,0.333461813 0,0.333461813 L0,4.45348382 C0,4.45348382 0.606695607,4.18939306 0.990593392,3.92976676 C2.4370654,2.94620895 30.3999059,2.55883004 31.0237398,4.20450358 C31.0682993,4.31989304 31.4384865,4.39681935 31.4384865,4.39681935 L31.5070396,0.389096019 C31.5070396,0.389096019 31.1060036,0.54741311 31.0100291,0.684094677" id="path-13"></path>
        <linearGradient x1="0%" y1="50.0041677%" x2="100.005222%" y2="50.0041677%" id="linearGradient-15">
            <stop stop-color="#D8A93B" offset="0%"></stop>
            <stop stop-color="#765378" offset="100%"></stop>
        </linearGradient>
        <path d="M30.790659,0.731830199 C29.6218273,2.09933271 1.73782301,2.5385682 1.09685081,0.854774926 C1.03515296,0.698174939 0.188521234,0.289503922 0.188521234,0.289503922 L0.0925467875,4.39544567 C0.0925467875,4.39544567 0.784933864,3.99707728 0.829493428,3.87894045 C1.45332733,2.23464059 29.3681806,2.40394716 30.8900611,3.92804966 C31.2088333,4.24777463 31.5276056,4.32126673 31.5276056,4.32126673 L31.7469758,0.141832882 C31.7469758,0.141832882 30.9380483,0.559776267 30.790659,0.731830199" id="path-16"></path>
        <linearGradient x1="0%" y1="50%" x2="100.005956%" y2="50%" id="linearGradient-18">
            <stop stop-color="#3AB6B2" offset="0%"></stop>
            <stop stop-color="#E15C73" offset="100%"></stop>
        </linearGradient>
    </defs>
    <g id="prototipo" stroke="none" stroke-width="1" fill="none" fill-rule="evenodd">
        <g id="desktop" transform="translate(-15.000000, -21.000000)">
            <g id="header">
                <g id="logo-/-standard-" transform="translate(15.000000, 21.000000)">
                    <g id="Group">
                        <path d="M-2.84217094e-14,50.8637443 L0.821952579,50.8637443 L1.4817769,54.3292058 C1.5983173,55.0160478 1.73165322,55.6949912 1.84647979,56.3835504 L1.88349851,56.3835504 C2.02780294,55.6949912 2.18101929,55.0067755 2.3236099,54.3292058 L3.19492076,50.8637443 L3.92329826,50.8637443 L4.79289529,54.3292058 C4.94474058,54.9975031 5.09967076,55.6949912 5.25151604,56.3835504 L5.29161965,56.3835504 C5.40507515,55.6949912 5.51990172,55.0067755 5.64432574,54.3292058 L6.30380729,50.8637443 L7.07057456,50.8637443 L5.76703592,57.2273358 L4.81140465,57.2273358 L3.86502806,53.3947572 C3.74985872,52.9012612 3.65491257,52.4448546 3.56133749,51.9486113 L3.52123388,51.9486113 C3.42320284,52.4448546 3.30974733,52.9012612 3.20246161,53.3947572 L2.27767927,57.2273358 L1.33130268,57.2273358 L-2.84217094e-14,50.8637443" id="Fill-10" fill="#7B9AA6"></path>
                        <polyline id="Fill-11" fill="#7B9AA6" points="9.59675909 50.8637443 13.210197 50.8637443 13.210197 51.5413139 10.3864917 51.5413139 10.3864917 53.538994 12.7700856 53.538994 12.7700856 54.230644 10.3864917 54.230644 10.3864917 56.5401503 13.3065142 56.5401503 13.3065142 57.2273358 9.59675909 57.2273358 9.59675909 50.8637443"></polyline>
                        <path d="M18.7407245,54.6379413 L18.4432037,53.6684637 C18.2132078,52.9596428 18.012347,52.2621547 17.8128572,51.5231126 L17.7761813,51.5231126 C17.5828613,52.2621547 17.3820005,52.9596428 17.1520046,53.6684637 L16.8558549,54.6379413 L18.7407245,54.6379413 Z M18.9415853,55.2863202 L16.6532803,55.2863202 L16.0524117,57.2273358 L15.2390282,57.2273358 L17.3621201,50.8637443 L18.2622233,50.8637443 L20.3863435,57.2273358 L19.5338847,57.2273358 L18.9415853,55.2863202 L18.9415853,55.2863202 Z" id="Fill-12" fill="#7B9AA6"></path>
                        <path d="M21.7176461,50.8637443 L22.5659917,50.8637443 L23.5737234,54.2982979 C23.8037193,55.0541676 23.944596,55.6582452 24.1841894,56.4051859 L24.2239502,56.4051859 C24.4525751,55.6582452 24.6061342,55.0541676 24.8251616,54.2982979 L25.8284373,50.8637443 L26.6442201,50.8637443 L24.6534359,57.2273358 L23.7255686,57.2273358 L21.7176461,50.8637443" id="Fill-13" fill="#7B9AA6"></path>
                        <polygon id="Fill-14" fill="#7B9AA6" points="28.9404087 57.2273358 29.7332262 57.2273358 29.7332262 50.8637443 28.9404087 50.8637443"></polygon>
                        <path d="M32.8897572,50.8637443 L33.7117098,50.8637443 L35.9818482,54.8591044 L36.6594963,56.1819622 L36.6965151,56.1819622 C36.6594963,55.541482 36.6012261,54.8206413 36.6012261,54.152344 L36.6012261,50.8637443 L37.3573677,50.8637443 L37.3573677,57.2273358 L36.5354151,57.2273358 L34.2594497,53.2209862 L33.5797449,51.9101481 L33.5399841,51.9101481 C33.5889996,52.5526888 33.6441849,53.2302585 33.6441849,53.8988993 L33.6441849,57.2273358 L32.8897572,57.2273358 L32.8897572,50.8637443" id="Fill-15" fill="#7B9AA6"></path>
                        <path d="M43.0383694,50.7504153 C43.9021394,50.7504153 44.4769578,51.1450061 44.8389185,51.532385 L44.3895525,52.0471731 C44.0738651,51.7058126 43.6810554,51.4568324 43.0493379,51.4568324 C41.7869311,51.4568324 40.9756043,52.4448546 40.9756043,54.0263085 C40.9756043,55.6290544 41.7211201,56.635278 43.0599636,56.635278 C43.5093297,56.635278 43.9401864,56.4896674 44.1886917,56.2588885 L44.1886917,54.5994781 L42.85876,54.5994781 L42.85876,53.9294637 L44.9156981,53.9294637 L44.9156981,56.6060872 C44.503008,57.0346766 43.8161051,57.3458161 42.9725583,57.3458161 C41.3283104,57.3458161 40.1505668,56.122207 40.1505668,54.0458834 C40.1505668,51.9980639 41.3680712,50.7504153 43.0383694,50.7504153" id="Fill-16" fill="#7B9AA6"></path>
                        <path d="M57.0170475,50.7504153 C57.7701041,50.7504153 58.3682306,51.1140982 58.7284775,51.532385 L58.2791114,52.0471731 C57.9541694,51.6876113 57.552105,51.4568324 57.0276732,51.4568324 C55.8314203,51.4568324 55.0461437,52.4448546 55.0461437,54.0263085 C55.0461437,55.6290544 55.8036562,56.635278 56.9879124,56.635278 C57.5908375,56.635278 58.0306062,56.3835504 58.4326705,55.9288609 L58.8803228,56.4230438 C58.3867399,57.0044556 57.7701041,57.3458161 56.969403,57.3458161 C55.3895951,57.3458161 54.2238483,56.122207 54.2238483,54.0458834 C54.2238483,51.9980639 55.4094755,50.7504153 57.0170475,50.7504153" id="Fill-17" fill="#7B9AA6"></path>
                        <path d="M65.3788211,54.0170361 C65.3788211,52.4372994 64.6411889,51.4568324 63.5230866,51.4568324 C62.4032705,51.4568324 61.6656383,52.4372994 61.6656383,54.0170361 C61.6656383,55.6105096 62.4032705,56.635278 63.5230866,56.635278 C64.6411889,56.635278 65.3788211,55.6105096 65.3788211,54.0170361 Z M60.8419719,54.0170361 C60.8419719,51.9781455 61.9432787,50.7504153 63.5230866,50.7504153 C65.1011807,50.7504153 66.2117422,51.986731 66.2117422,54.0170361 C66.2117422,56.063482 65.1011807,57.3458161 63.5230866,57.3458161 C61.9432787,57.3458161 60.8419719,56.063482 60.8419719,54.0170361 L60.8419719,54.0170361 Z" id="Fill-18" fill="#7B9AA6"></path>
                        <path d="M70.5062559,56.5662503 C71.9678096,56.5662503 72.7071556,55.6290544 72.7071556,54.0170361 C72.7071556,52.4170375 71.9678096,51.5231126 70.5062559,51.5231126 L69.7885041,51.5231126 L69.7885041,56.5662503 L70.5062559,56.5662503 Z M68.9956867,50.8637443 L70.5645261,50.8637443 C72.4970401,50.8637443 73.5277371,51.9980639 73.5277371,54.0170361 C73.5277371,56.0456241 72.4970401,57.2273358 70.6025731,57.2273358 L68.9956867,57.2273358 L68.9956867,50.8637443 L68.9956867,50.8637443 Z" id="Fill-19" fill="#7B9AA6"></path>
                        <polyline id="Fill-20" fill="#7B9AA6" points="76.3130527 50.8637443 79.9312893 50.8637443 79.9312893 51.5413139 77.107584 51.5413139 77.107584 53.538994 79.4908351 53.538994 79.4908351 54.230644 77.107584 54.230644 77.107584 56.5401503 80.0245216 56.5401503 80.0245216 57.2273358 76.3130527 57.2273358 76.3130527 50.8637443"></polyline>
                        <path d="M82.3772666,58.4117949 C82.9143807,58.1707134 83.2393228,57.75277 83.2393228,57.2273358 C83.2119015,57.2407292 83.173169,57.2407292 83.1443766,57.2407292 C82.8376012,57.2407292 82.5781274,57.0442924 82.5781274,56.6847306 C82.5781274,56.3358148 82.8468558,56.122207 83.1642571,56.122207 C83.5752333,56.122207 83.8237386,56.4817688 83.8237386,57.0628371 C83.8237386,57.8970068 83.3452374,58.5471028 82.5692155,58.8791909 L82.3772666,58.4117949" id="Fill-21" fill="#7B9AA6"></path>
                        <path d="M89.3330146,50.8637443 L90.1563382,50.8637443 L90.8178764,54.3292058 C90.9313319,55.0160478 91.064325,55.6949912 91.1781233,56.3835504 L91.2178842,56.3835504 C91.3604748,55.6949912 91.51232,55.0067755 91.6597094,54.3292058 L92.5293064,50.8637443 L93.254599,50.8637443 L94.1245388,54.3292058 C94.2791262,54.9975031 94.4326853,55.6949912 94.5828168,56.3835504 L94.6229204,56.3835504 C94.739118,55.6949912 94.8529163,55.0067755 94.9769976,54.3292058 L95.635108,50.8637443 L96.4049602,50.8637443 L95.1014216,57.2273358 L94.1444192,57.2273358 L93.1980426,53.3947572 C93.0828733,52.9012612 92.9892982,52.4448546 92.8912672,51.9486113 L92.8528774,51.9486113 C92.7579313,52.4448546 92.6427619,52.9012612 92.5385611,53.3947572 L91.6106939,57.2273358 L90.6612324,57.2273358 L89.3330146,50.8637443" id="Fill-22" fill="#7B9AA6"></path>
                        <polyline id="Fill-23" fill="#7B9AA6" points="98.9297737 50.8637443 102.545954 50.8637443 102.545954 51.5413139 99.7239622 51.5413139 99.7239622 53.538994 102.106185 53.538994 102.106185 54.230644 99.7239622 54.230644 99.7239622 56.5401503 102.641243 56.5401503 102.641243 57.2273358 98.9297737 57.2273358 98.9297737 50.8637443"></polyline>
                        <path d="M108.074082,54.6379413 L107.779303,53.6684637 C107.54965,52.9596428 107.347418,52.2621547 107.148614,51.5231126 L107.107482,51.5231126 C106.918961,52.2621547 106.716729,52.9596428 106.487076,53.6684637 L106.190241,54.6379413 L108.074082,54.6379413 Z M108.276314,55.2863202 L105.988009,55.2863202 L105.386797,57.2273358 L104.572043,57.2273358 L106.696163,50.8637443 L107.597637,50.8637443 L109.719358,57.2273358 L108.869299,57.2273358 L108.276314,55.2863202 L108.276314,55.2863202 Z" id="Fill-24" fill="#7B9AA6"></path>
                        <path d="M111.04929,50.8637443 L111.902777,50.8637443 L112.903653,54.2982979 C113.136734,55.0541676 113.277268,55.6582452 113.517204,56.4051859 L113.554908,56.4051859 C113.784561,55.6582452 113.938806,55.0541676 114.158176,54.2982979 L115.16248,50.8637443 L115.978263,50.8637443 L113.986793,57.2273358 L113.057898,57.2273358 L111.04929,50.8637443" id="Fill-25" fill="#7B9AA6"></path>
                        <polygon id="Fill-26" fill="#7B9AA6" points="118.274794 57.2273358 119.066584 57.2273358 119.066584 50.8637443 118.274794 50.8637443"></polygon>
                        <path d="M122.223457,50.8637443 L123.042668,50.8637443 L125.311778,54.8591044 L125.993882,56.1819622 L126.031586,56.1819622 C125.993882,55.541482 125.935612,54.8206413 125.935612,54.152344 L125.935612,50.8637443 L126.693124,50.8637443 L126.693124,57.2273358 L125.870486,57.2273358 L123.591093,53.2209862 L122.912417,51.9101481 L122.874712,51.9101481 C122.9227,52.5526888 122.98097,53.2302585 122.98097,53.8988993 L122.98097,57.2273358 L122.223457,57.2273358 L122.223457,50.8637443" id="Fill-27" fill="#7B9AA6"></path>
                        <path d="M132.372755,50.7504153 C133.236525,50.7504153 133.805516,51.1450061 134.172276,51.532385 L133.719825,52.0471731 C133.407908,51.7058126 133.013727,51.4568324 132.386466,51.4568324 C131.118232,51.4568324 130.305877,52.4448546 130.305877,54.0263085 C130.305877,55.6290544 131.056534,56.635278 132.393321,56.635278 C132.842344,56.635278 133.274229,56.4896674 133.521021,56.2588885 L133.521021,54.5994781 L132.191089,54.5994781 L132.191089,53.9294637 L134.247684,53.9294637 L134.247684,56.6060872 C133.836365,57.0346766 133.147406,57.3458161 132.307629,57.3458161 C130.662353,57.3458161 129.483239,56.122207 129.483239,54.0458834 C129.483239,51.9980639 130.69663,50.7504153 132.372755,50.7504153" id="Fill-28" fill="#7B9AA6"></path>
                        <path d="M141.569164,54.7639768 L139.680524,50.8637443 L140.534011,50.8637443 L141.346366,52.6598362 C141.548598,53.1258585 141.740546,53.5699019 141.949634,54.0458834 L141.987338,54.0458834 C142.206708,53.5699019 142.429506,53.1258585 142.618027,52.6598362 L143.423527,50.8637443 L144.256448,50.8637443 L142.374663,54.7639768 L142.374663,57.2273358 L141.569164,57.2273358 L141.569164,54.7639768" id="Fill-29" fill="#7B9AA6"></path>
                        <path d="M150.580479,54.0170361 C150.580479,52.4372994 149.843532,51.4568324 148.71926,51.4568324 C147.605271,51.4568324 146.868324,52.4372994 146.868324,54.0170361 C146.868324,55.6105096 147.605271,56.635278 148.71926,56.635278 C149.843532,56.635278 150.580479,55.6105096 150.580479,54.0170361 Z M146.045686,54.0170361 C146.045686,51.9781455 147.145964,50.7504153 148.71926,50.7504153 C150.302838,50.7504153 151.409972,51.986731 151.409972,54.0170361 C151.409972,56.063482 150.302838,57.3458161 148.71926,57.3458161 C147.145964,57.3458161 146.045686,56.063482 146.045686,54.0170361 L146.045686,54.0170361 Z" id="Fill-30" fill="#7B9AA6"></path>
                        <path d="M154.169237,50.8637443 L154.961026,50.8637443 L154.961026,54.6176795 C154.961026,56.1513977 155.601999,56.635278 156.424637,56.635278 C157.257558,56.635278 157.905385,56.1513977 157.905385,54.6176795 L157.905385,50.8637443 L158.676609,50.8637443 L158.676609,54.5994781 C158.676609,56.6462674 157.706581,57.3458161 156.424637,57.3458161 C155.142692,57.3458161 154.169237,56.6462674 154.169237,54.5994781 L154.169237,50.8637443" id="Fill-31" fill="#7B9AA6"></path>
                        <path d="M162.594423,53.8800111 L163.646714,53.8800111 C164.623597,53.8800111 165.168594,53.4744309 165.168594,52.6495336 C165.168594,51.8133034 164.623597,51.5138402 163.646714,51.5138402 L162.594423,51.5138402 L162.594423,53.8800111 Z M165.244003,57.2273358 L163.732405,54.5410966 L162.594423,54.5410966 L162.594423,57.2273358 L161.799206,57.2273358 L161.799206,50.8637443 L163.759827,50.8637443 C165.045199,50.8637443 165.963811,51.3307968 165.963811,52.6495336 C165.963811,53.6372124 165.40853,54.24129 164.555043,54.4518071 L166.145477,57.2273358 L165.244003,57.2273358 L165.244003,57.2273358 Z" id="Fill-32" fill="#7B9AA6"></path>
                        <path d="M173.98796,54.0458834 C175.081384,54.0458834 175.605815,53.6372124 175.605815,52.7371059 C175.605815,51.8133034 175.071101,51.5138402 173.98796,51.5138402 L172.956235,51.5138402 L172.956235,54.0458834 L173.98796,54.0458834 Z M172.161018,50.8637443 L174.083935,50.8637443 C175.472137,50.8637443 176.397605,51.3386955 176.397605,52.7371059 C176.397605,54.0767913 175.461854,54.7069689 174.083935,54.7069689 L172.956235,54.7069689 L172.956235,57.2273358 L172.161018,57.2273358 L172.161018,50.8637443 L172.161018,50.8637443 Z" id="Fill-33" fill="#7B9AA6"></path>
                        <path d="M179.900672,53.8800111 L180.952963,53.8800111 C181.929846,53.8800111 182.474844,53.4744309 182.474844,52.6495336 C182.474844,51.8133034 181.929846,51.5138402 180.952963,51.5138402 L179.900672,51.5138402 L179.900672,53.8800111 Z M182.550252,57.2273358 L181.038655,54.5410966 L179.900672,54.5410966 L179.900672,57.2273358 L179.108883,57.2273358 L179.108883,50.8637443 L181.069504,50.8637443 C182.351448,50.8637443 183.27006,51.3307968 183.27006,52.6495336 C183.27006,53.6372124 182.71478,54.24129 181.861293,54.4518071 L183.448299,57.2273358 L182.550252,57.2273358 L182.550252,57.2273358 Z" id="Fill-34" fill="#7B9AA6"></path>
                        <path d="M190.272767,54.0170361 C190.272767,52.4372994 189.535821,51.4568324 188.418404,51.4568324 C187.294132,51.4568324 186.560613,52.4372994 186.560613,54.0170361 C186.560613,55.6105096 187.294132,56.635278 188.418404,56.635278 C189.535821,56.635278 190.272767,55.6105096 190.272767,54.0170361 Z M185.734547,54.0170361 C185.734547,51.9781455 186.834826,50.7504153 188.418404,50.7504153 C189.995127,50.7504153 191.105688,51.986731 191.105688,54.0170361 C191.105688,56.063482 189.995127,57.3458161 188.418404,57.3458161 C186.834826,57.3458161 185.734547,56.063482 185.734547,54.0170361 L185.734547,54.0170361 Z" id="Fill-35" fill="#7B9AA6"></path>
                        <path d="M193.515333,55.9192451 C193.792973,56.4230438 194.146022,56.635278 194.598473,56.635278 C195.266866,56.635278 195.599349,56.2482425 195.599349,55.2770478 L195.599349,50.8637443 L196.401421,50.8637443 L196.401421,55.3556912 C196.401421,56.452578 195.897555,57.3458161 194.670454,57.3458161 C193.878664,57.3458161 193.306245,56.9934661 192.939486,56.3251688 L193.515333,55.9192451" id="Fill-36" fill="#7B9AA6"></path>
                        <polyline id="Fill-37" fill="#7B9AA6" points="199.530874 50.8637443 203.147054 50.8637443 203.147054 51.5413139 200.326091 51.5413139 200.326091 53.538994 202.708313 53.538994 202.708313 54.230644 200.326091 54.230644 200.326091 56.5401503 203.243028 56.5401503 203.243028 57.2273358 199.530874 57.2273358 199.530874 50.8637443"></polyline>
                        <path d="M208.439359,50.7504153 C209.193444,50.7504153 209.789857,51.1140982 210.149761,51.532385 L209.700737,52.0471731 C209.37511,51.6876113 208.974074,51.4568324 208.446214,51.4568324 C207.253389,51.4568324 206.468455,52.4448546 206.468455,54.0263085 C206.468455,55.6290544 207.22254,56.635278 208.40851,56.635278 C209.011778,56.635278 209.450518,56.3835504 209.854982,55.9288609 L210.300578,56.4230438 C209.806995,57.0044556 209.193444,57.3458161 208.391372,57.3458161 C206.811221,57.3458161 205.645817,56.122207 205.645817,54.0458834 C205.645817,51.9980639 206.831787,50.7504153 208.439359,50.7504153" id="Fill-38" fill="#7B9AA6"></path>
                        <polyline id="Fill-39" fill="#7B9AA6" points="214.036726 51.5413139 212.14123 51.5413139 212.14123 50.8637443 216.734293 50.8637443 216.734293 51.5413139 214.838798 51.5413139 214.838798 57.2273358 214.036726 57.2273358 214.036726 51.5413139"></polyline>
                        <path d="M218.941706,55.8412886 C219.394157,56.3158964 220.024846,56.635278 220.676101,56.635278 C221.498739,56.635278 221.985467,56.2204254 221.985467,55.5981465 C221.985467,54.9463334 221.536443,54.7454321 220.940031,54.4720689 L220.045412,54.0767913 C219.448999,53.8202558 218.770323,53.3655664 218.770323,52.4372994 C218.770323,51.464731 219.603244,50.7504153 220.741226,50.7504153 C221.488456,50.7504153 222.149994,51.0680798 222.599017,51.532385 L222.167132,52.056102 C221.786662,51.6876113 221.327356,51.4568324 220.741226,51.4568324 C220.045412,51.4568324 219.575822,51.8133034 219.575822,52.3878468 C219.575822,52.9994796 220.12082,53.2302585 220.617831,53.443523 L221.509022,53.832619 C222.235686,54.152344 222.797822,54.5902058 222.797822,55.530836 C222.797822,56.5401503 221.985467,57.3458161 220.66239,57.3458161 C219.78491,57.3458161 219.010259,56.9752648 218.465261,56.4051859 L218.941706,55.8412886" id="Fill-40" fill="#7B9AA6"></path>
                        <polyline id="Fill-41" fill="#567181" points="115.954269 37.3381073 107.601065 37.3381073 119.152275 13.1368844 123.937287 21.2515797 115.954269 37.3381073"></polyline>
                        <path d="M179.465359,3.5447918 C179.465359,5.35496401 176.212511,6.82377572 172.195295,6.82377572 C168.178079,6.82377572 164.925231,5.35496401 164.925231,3.5447918 C164.925231,1.73771037 168.178079,0.267181556 172.195295,0.267181556 C176.212511,0.267181556 179.465359,1.73771037 179.465359,3.5447918" id="Fill-42" fill="#D7A83B"></path>
                        <path d="M190.077391,18.7318997 C190.077391,20.543789 186.821115,22.0126007 182.807327,22.0126007 C178.79011,22.0126007 175.537262,20.543789 175.537262,18.7318997 C175.537262,16.9231012 178.79011,15.4542894 182.807327,15.4542894 C186.821115,15.4542894 190.077391,16.9231012 190.077391,18.7318997" id="Fill-43" fill="#DF7C42"></path>
                        <path d="M211.298026,18.7318997 C211.298026,20.543789 208.041751,22.0126007 204.027962,22.0126007 C200.010746,22.0126007 196.757898,20.543789 196.757898,18.7318997 C196.757898,16.9231012 200.010746,15.4542894 204.027962,15.4542894 C208.041751,15.4542894 211.298026,16.9231012 211.298026,18.7318997" id="Fill-44" fill="#D14F5D"></path>
                        <path d="M221.90663,3.5447918 C221.90663,5.35496401 218.653782,6.82377572 214.636566,6.82377572 C210.626205,6.82377572 207.369929,5.35496401 207.369929,3.5447918 C207.369929,1.73771037 210.626205,0.267181556 214.636566,0.267181556 C218.653782,0.267181556 221.90663,1.73771037 221.90663,3.5447918" id="Fill-45" fill="#755377"></path>
                        <path d="M168.856755,18.7318997 C168.856755,20.543789 165.600479,22.0126007 161.586691,22.0126007 C157.569475,22.0126007 154.316627,20.543789 154.316627,18.7318997 C154.316627,16.9231012 157.569475,15.4542894 161.586691,15.4542894 C165.600479,15.4542894 168.856755,16.9231012 168.856755,18.7318997" id="Fill-46" fill="#33A57F"></path>
                        <path d="M158.244724,34.6611404 C158.244724,36.4713126 154.988448,37.9404677 150.974659,37.9404677 C146.957443,37.9404677 143.704595,36.4713126 143.704595,34.6611404 C143.704595,32.8550892 146.957443,31.3818131 150.974659,31.3818131 C154.988448,31.3818131 158.244724,32.8550892 158.244724,34.6611404" id="Fill-47" fill="#39B6B2"></path>
                        <path d="M200.689422,34.6611404 C200.689422,36.4713126 197.429719,37.9404677 193.41593,37.9404677 C189.398714,37.9404677 186.149294,36.4713126 186.149294,34.6611404 C186.149294,32.8550892 189.398714,31.3818131 193.41593,31.3818131 C197.429719,31.3818131 200.689422,32.8550892 200.689422,34.6611404" id="Fill-48" fill="#E15C73"></path>
                        <path d="M147.632692,18.7318997 C147.632692,20.543789 144.379844,22.0126007 140.366055,22.0126007 C136.345412,22.0126007 133.092563,20.543789 133.092563,18.7318997 C133.092563,16.9231012 136.345412,15.4542894 140.366055,15.4542894 C144.379844,15.4542894 147.632692,16.9231012 147.632692,18.7318997" id="Fill-49" fill="#256D96"></path>
                        <path d="M137.024088,3.5447918 C137.024088,5.35496401 133.767812,6.82377572 129.750596,6.82377572 C125.736808,6.82377572 122.480532,5.35496401 122.480532,3.5447918 C122.480532,1.73771037 125.736808,0.267181556 129.750596,0.267181556 C133.767812,0.267181556 137.024088,1.73771037 137.024088,3.5447918" id="Fill-50" fill="#567181"></path>
                        <g id="Group-53" transform="translate(146.018265, 16.578306)">
                            <mask id="mask-2" fill="white">
                                <use xlink:href="#path-1"></use>
                            </mask>
                            <g id="Clip-52"></g>
                            <path d="M9.79624884,0.203305245 C9.79624884,0.203305245 9.03873624,0.660055206 8.93590648,0.795019668 C8.18867686,1.73702353 1.81665916,2.45443005 0.918612557,0.773727564 C0.836348746,0.613693368 0,0.0683407835 0,0.0683407835 L0,4.18664569 C0,4.18664569 0.747229617,3.7147852 0.808927476,3.60248653 C1.62128261,2.07494982 8.10984071,2.43657216 8.75766822,3.33839576 C8.82964906,3.43970496 9.83052542,4.18664569 9.83052542,4.18664569 L9.79624884,0.203305245" id="Fill-51" fill="url(#linearGradient-3)" mask="url(#mask-2)"></path>
                        </g>
                        <g id="Group-56" transform="translate(166.926983, 16.578306)">
                            <mask id="mask-5" fill="white">
                                <use xlink:href="#path-4"></use>
                            </mask>
                            <g id="Clip-55"></g>
                            <path d="M8.94961711,1.13775385 C8.14068964,1.90014852 2.29310373,1.79712221 1.51502519,1.06391833 C0.832921087,0.418973648 0.017138294,0.400085491 0.017138294,0.400085491 L0.0411319055,3.98986544 C0.0411319055,3.98986544 1.00087637,3.92839308 1.6384209,3.15397867 C2.1045825,2.58836425 7.08497073,1.92453141 9.02502561,3.20308788 C9.12785537,3.27245893 10.0293296,3.96548255 10.0293296,3.96548255 L10.0807445,0.301867079 C10.0807445,0.301867079 9.07301283,1.02236438 8.94961711,1.13775385" id="Fill-54" fill="url(#linearGradient-6)" mask="url(#mask-5)"></path>
                        </g>
                        <g id="Group-59" transform="translate(188.178468, 16.578306)">
                            <mask id="mask-8" fill="white">
                                <use xlink:href="#path-7"></use>
                            </mask>
                            <g id="Clip-58"></g>
                            <path d="M9.09700644,0.965356495 C8.10641305,2.33320243 1.82351448,2.09212087 1.09685081,0.769263091 C1.014587,0.619874946 0.0411319055,0.15453946 0.0411319055,0.15453946 L0.215942504,4.13753648 C0.215942504,4.13753648 1.00087637,3.75187467 1.0728572,3.64575758 C2.06687825,2.19033928 8.15097261,2.11822087 9.31980426,3.59630495 C9.39521276,3.69624047 9.73455098,3.7930852 9.73455098,3.7930852 L9.90593392,0.350976285 C9.90593392,0.350976285 9.19298089,0.827301244 9.09700644,0.965356495" id="Fill-57" fill="url(#linearGradient-9)" mask="url(#mask-8)"></path>
                        </g>
                        <g id="Group-62" transform="translate(135.049757, 1.124360)">
                            <mask id="mask-11" fill="white">
                                <use xlink:href="#path-10"></use>
                            </mask>
                            <g id="Clip-61"></g>
                            <path d="M30.9243377,0.798110457 C29.8137762,2.54474978 1.4807486,2.39433137 0.884335969,0.79914072 C0.82606577,0.644257839 0,0.333461813 0,0.333461813 L0,4.45348382 C0,4.45348382 1.0317253,4.06473122 1.0899955,3.95724044 C1.88521234,2.49426689 30.1565421,2.3098498 30.7838036,3.95552334 C30.8283632,4.0709128 31.6818502,4.42120225 31.6818502,4.42120225 L31.5515992,0.465678907 C31.5515992,0.465678907 31.0134568,0.656620995 30.9243377,0.798110457" id="Fill-60" fill="url(#linearGradient-12)" mask="url(#mask-11)"></path>
                        </g>
                        <g id="Group-65" transform="translate(177.552726, 1.124360)">
                            <mask id="mask-14" fill="white">
                                <use xlink:href="#path-13"></use>
                            </mask>
                            <g id="Clip-64"></g>
                            <path d="M31.0100291,0.684094677 C30.0537123,2.08559587 2.48848029,3.01970105 0.867197675,0.831422296 C0.592984972,0.464305223 0,0.333461813 0,0.333461813 L0,4.45348382 C0,4.45348382 0.606695607,4.18939306 0.990593392,3.92976676 C2.4370654,2.94620895 30.3999059,2.55883004 31.0237398,4.20450358 C31.0682993,4.31989304 31.4384865,4.39681935 31.4384865,4.39681935 L31.5070396,0.389096019 C31.5070396,0.389096019 31.1060036,0.54741311 31.0100291,0.684094677" id="Fill-63" fill="url(#linearGradient-15)" mask="url(#mask-14)"></path>
                        </g>
                        <g id="Group-68" transform="translate(156.301241, 32.375673)">
                            <mask id="mask-17" fill="white">
                                <use xlink:href="#path-16"></use>
                            </mask>
                            <g id="Clip-67"></g>
                            <path d="M30.790659,0.731830199 C29.6218273,2.09933271 1.73782301,2.5385682 1.09685081,0.854774926 C1.03515296,0.698174939 0.188521234,0.289503922 0.188521234,0.289503922 L0.0925467875,4.39544567 C0.0925467875,4.39544567 0.784933864,3.99707728 0.829493428,3.87894045 C1.45332733,2.23464059 29.3681806,2.40394716 30.8900611,3.92804966 C31.2088333,4.24777463 31.5276056,4.32126673 31.5276056,4.32126673 L31.7469758,0.141832882 C31.7469758,0.141832882 30.9380483,0.559776267 30.790659,0.731830199" id="Fill-66" fill="url(#linearGradient-18)" mask="url(#mask-17)"></path>
                        </g>
                        <polygon id="Fill-69" fill="#567181" points="0.0736946641 37.6715691 6.8080159 37.6715691 6.8080159 -1.42108547e-14 0.0736946641 -1.42108547e-14"></polygon>
                        <path d="M41.0736353,37.6715691 L47.8113842,37.6715691 L47.8113842,6.57822969 L41.0736353,6.57822969 L41.0736353,37.6715691 Z M26.0306692,6.75028362 L62.4817639,6.75028362 L62.4817639,-1.42108547e-14 L26.0306692,-1.42108547e-14 L26.0306692,6.75028362 Z" id="Fill-70" fill="#567181"></path>
                        <polygon id="Fill-71" fill="#567181" points="81.911105 37.6715691 88.6443979 37.6715691 88.6443979 -1.42108547e-14 81.911105 -1.42108547e-14"></polygon>
                    </g>
                </g>
            </g>
        </g>
    </g>
</svg>